# xmcd CD database file
#
# Track frame offsets:
#	150
#	17027
#	38179
#	55056
#	76208
#
# Disc length: 1286 seconds
#
# Revision: 0
# Processed by: cddbd v1.5.1PL0 Copyright (c) Steve Scherf et al.
# Submitted via: CDex 1.51
#
DISCID=31050405
DTITLE=井上みゆ - ぶっちゃけジェネレーション
DYEAR=2005
DGENRE=Vocal
TTITLE0=井上みゆ - ぶっちゃけジェネレーション
TTITLE1=井上みゆ - らぶ☆ミ・ドゥ
TTITLE2=ぶっちゃけジェネレーション (Original Karaoke)
TTITLE3=らぶ☆ミ・ドゥ (Original Karaoke)
TTITLE4=井上みゆ - らぶ☆ミ・ドゥ (POPS Version)
EXTD=YEAR: 2005
EXTT0=
EXTT1=
EXTT2=
EXTT3=
EXTT4=
PLAYORDER=
